<svg version="1.0" xmlns="http://www.w3.org/2000/svg" width="1024.000000pt" height="1124.000000pt" viewBox="0 0 1024.000000 1124.000000" preserveAspectRatio="xMidYMid meet">
<g transform="translate(0.000000,1024.000000) scale(0.100000,-0.100000)" fill="#000000" stroke="none">
<path d="M0 5120 l0 -5120 5120 0 5120 0 0 5120 0 5120 -5120 0 -5120 0 0 -5120z m5435 4105 c63 -17 171 -71 260 -130 119 -79 233 -222 285 -357 54 -140 64 -191 63 -338 0 -205 -38 -325 -147 -470 -115 -153 -242 -234 -721 -460 -99 -47 -234 -113 -300 -146 -66 -34 -280 -143 -475 -242 -528 -267 -733 -372 -963 -494 -115 -61 -263 -135 -329 -165 -67 -29 -165 -77 -217 -105 -53 -28 -139 -73 -191 -101 -290 -152 -395 -225 -492 -341 -79 -94 -101 -156 -96 -266 8 -170 101 -292 263 -348 57 -20 88 -21 635 -26 373 -4 589 -10 615 -17 47 -13 120 -82 131 -123 9 -35 -35 -100 -86 -128 -33 -17 -60 -18 -565 -12 -291 3 -569 9 -617 14 -96 10 -257 66 -363 128 -257 151 -349 456 -239 794 64 197 194 314 529 478 203 99 482 239 1745 872 388 195 768 382 845 417 77 36 226 106 330 156 212 103 248 132 340 274 159 246 132 538 -69 736 -178 174 -433 205 -675 80 -137 -71 -231 -174 -282 -310 l-21 -57 -47 8 c-72 13 -132 6 -183 -21 l-48 -25 0 37 c0 94 85 292 169 394 56 67 185 170 277 221 79 43 181 77 262 89 87 12 308 3 377 -16z m-855 -806 c81 -49 111 -94 113 -173 1 -63 -32 -127 -81 -158 -35 -21 -140 -36 -184 -25 -62 16 -148 123 -148 185 0 65 48 129 134 179 35 20 126 16 166 -8z m1427 -956 c48 -21 435 -212 858 -424 1597 -801 1604 -806 1716 -926 64 -70 165 -261 179 -342 14 -78 12 -235 -5 -314 -46 -216 -251 -404 -523 -478 -72 -20 -97 -20 -1782 -17 l-1709 4 -38 30 c-36 29 -83 88 -83 104 0 23 53 79 99 104 50 27 67 30 202 38 85 5 465 6 886 1 406 -4 1109 -8 1563 -8 l826 0 67 34 c183 93 275 293 219 478 -28 89 -87 181 -152 232 -79 63 -228 142 -1025 546 -121 61 -297 153 -392 203 -94 51 -174 92 -178 92 -4 0 -72 36 -151 80 -78 44 -146 80 -150 80 -4 0 -69 36 -146 80 -165 96 -395 212 -486 246 -35 14 -77 31 -93 40 l-29 15 19 37 c21 41 51 72 96 96 43 24 108 14 212 -31z m-422 -344 c104 -13 259 -61 381 -120 71 -33 103 -57 179 -132 76 -75 96 -100 105 -136 14 -53 5 -80 -35 -101 -24 -13 -30 -13 -53 1 -260 153 -286 165 -460 211 -106 28 -131 31 -272 31 -172 1 -275 -13 -395 -50 -104 -33 -160 -61 -271 -139 -209 -145 -328 -328 -384 -590 -21 -97 -22 -121 -27 -1344 -3 -791 -1 -1303 5 -1405 10 -153 12 -164 50 -256 65 -158 169 -293 297 -384 73 -52 237 -135 326 -165 87 -29 278 -39 743 -40 592 0 738 19 956 127 97 47 127 68 187 129 158 159 260 336 288 498 18 104 30 126 82 152 76 37 169 12 193 -52 12 -32 -5 -175 -31 -260 -27 -90 -107 -242 -172 -329 -199 -269 -534 -469 -864 -517 -119 -17 -1184 -18 -1293 -1 -172 27 -383 110 -531 209 -92 61 -236 198 -295 281 -54 76 -123 212 -154 303 -55 162 -52 94 -57 1494 -5 1386 -3 1485 42 1701 40 193 129 347 299 518 194 194 429 325 638 356 143 22 389 26 523 10z m248 -2533 c40 -17 72 -51 92 -99 14 -35 14 -41 -1 -72 -20 -42 -60 -84 -88 -91 -12 -2 -260 -3 -552 -2 l-531 3 -36 27 c-42 33 -73 74 -82 111 -6 22 0 33 40 71 26 25 61 50 78 55 18 5 261 10 540 10 409 1 514 -2 540 -13z m1613 -587 c80 -38 134 -129 119 -199 -7 -34 -76 -115 -114 -134 -92 -46 -210 -11 -275 83 -102 147 100 333 270 250z"/>
</g>
<text x="50%" y="87%" font-family="Arial, sans-serif" font-size="150" font-weight="bold" text-anchor="middle" fill="#f1f1f1">EVONT</text>
</svg>